<svg width="512" height="512" viewBox="0 0 512 512" fill="none" xmlns="http://www.w3.org/2000/svg">
<rect width="512" height="512" fill="white"/>
<path d="M423.202 278.737H457.579V338.151L423.202 278.737ZM323.043 244.586V173.789L364.014 244.586H323.043ZM172.797 342.013H209.218V278.726H273.408V244.574H209.218V169.012H172.797V342.025V342.013ZM70.3555 342.013H106.776V203.163H159.132V169.012H18V203.163H70.3555V342.025V342.013ZM455.072 342.013H494V332.448C494 287.602 466.907 244.574 414.778 244.574H403.62L375.624 196.318C364.929 177.876 349.672 169 325.086 169H286.61V342.013H323.031V278.726H383.811L404.523 314.695C415.217 333.137 430.475 342.013 455.06 342.013" fill="#FF0350"/>
</svg>
