<?xml version="1.0" encoding="UTF-8" standalone="no"?>
<!-- Created with Inkscape (http://www.inkscape.org/) -->

<svg
   width="212mm"
   height="240mm"
   viewBox="0 0 212 240"
   version="1.1"
   id="svg1"
   inkscape:version="1.3.2 (091e20ef0f, 2023-11-25, custom)"
   sodipodi:docname="drawing.svg"
   xmlns:inkscape="http://www.inkscape.org/namespaces/inkscape"
   xmlns:sodipodi="http://sodipodi.sourceforge.net/DTD/sodipodi-0.dtd"
   xmlns="http://www.w3.org/2000/svg"
   xmlns:svg="http://www.w3.org/2000/svg">
  <sodipodi:namedview
     id="namedview1"
     pagecolor="#505050"
     bordercolor="#eeeeee"
     borderopacity="1"
     inkscape:showpageshadow="0"
     inkscape:pageopacity="0"
     inkscape:pagecheckerboard="0"
     inkscape:deskcolor="#505050"
     inkscape:document-units="mm"
     inkscape:zoom="0.6289422"
     inkscape:cx="476.99137"
     inkscape:cy="483.35125"
     inkscape:window-width="1600"
     inkscape:window-height="952"
     inkscape:window-x="0"
     inkscape:window-y="0"
     inkscape:window-maximized="1"
     inkscape:current-layer="layer1" />
  <defs
     id="defs1" />
  <g
     inkscape:label="Layer 1"
     inkscape:groupmode="layer"
     id="layer1">
    <path
       fill="#198ce2"
       opacity="1"
       stroke="none"
       d="M 79.821526,6.3084838 C 79.531149,5.1292653 79.339838,4.2091064 78.948351,2.326114 c 4.88439,2.2566328 9.137212,4.0422499 13.229994,6.1401958 39.975375,20.4914562 69.078725,51.1642012 86.744035,92.5947402 9.78127,22.94008 14.234,46.90105 14.29227,71.75616 0.0101,4.34201 -0.12903,4.49827 -4.44712,3.51908 -23.80011,-5.39703 -47.86884,-6.95555 -72.12485,-4.53816 -8.93578,0.89059 -17.771486,2.79 -26.650171,4.24523 -1.899791,0.31136 -3.788188,0.69203 -6.459244,1.18391 0.729007,-2.29089 1.104611,-3.90818 1.744138,-5.41334 6.258791,-14.73056 10.758661,-29.95221 12.989188,-45.82409 3.622129,-25.77419 2.255099,-51.256511 -4.96233,-76.286416 C 89.133995,35.240928 84.400605,20.940768 79.821526,6.3084838 M 173.24367,150.41641 c 3.60688,-0.13614 7.21376,-0.27228 10.79164,-0.40725 -0.34294,-8.66388 -5.55991,-14.72266 -12.62502,-14.26162 -4.05153,0.26444 -6.00805,-1.50166 -8.13064,-4.2261 -5.1921,-6.66433 -9.36617,-7.64004 -17.45427,-4.26727 1.42891,9.04231 2.86503,18.13025 4.35004,27.52742 2.0479,-0.24511 3.80456,-0.45529 5.81972,-0.69645 -0.44736,-3.64848 -0.84527,-6.89348 -1.26959,-10.35401 1.86066,-0.32066 3.45605,-0.45339 4.96631,-0.88442 3.51889,-1.00429 6.04712,-0.14903 8.12177,3.0681 1.13695,1.7631 3.21892,2.91675 5.43004,4.5016 m -70.44463,-17.09814 c -4.693082,0.80856 -1.11959,3.65984 -1.84203,5.95924 3.11062,-0.44691 5.72666,-0.82279 8.66417,-1.24486 1.24796,7.71991 2.43549,15.06613 3.67509,22.73432 2.18683,-0.43828 3.91369,-0.78438 5.8066,-1.16376 -1.15025,-7.68271 -2.23735,-14.94326 -3.3483,-22.36343 3.01707,-0.60071 5.61919,-1.1188 8.45544,-1.68349 -0.32096,-1.8887 -0.58094,-3.41851 -0.91782,-5.40098 -6.82115,1.06068 -13.3539,2.07651 -20.49315,3.16296 m 27.36053,-4.29131 c -1.25127,0.28046 -2.50255,0.56093 -3.84999,0.86293 1.51522,9.54167 2.95586,18.61392 4.45508,28.05474 2.12775,-0.38151 3.85654,-0.69147 5.77788,-1.03597 -0.40963,-3.55511 -0.78148,-6.78229 -1.16916,-10.14699 3.62496,-0.64934 6.83277,-1.22397 10.24702,-1.83557 -0.37371,-2.02339 -0.67508,-3.65489 -1.00033,-5.41583 -3.63412,0.48112 -6.86408,0.90874 -10.407,1.37778 -0.51864,-3.2866 -0.8429,-6.21349 -1.50238,-9.06281 -0.24169,-1.0444 -1.27778,-1.9049 -2.55112,-2.79828 z"
       id="path2"
       inkscape:export-filename="path2.svg"
       inkscape:export-xdpi="96"
       inkscape:export-ydpi="96"
       style="stroke-width:0.741171" />
    <path
       fill="#474747"
       opacity="1"
       stroke="none"
       d="M 32.442253,230.48448 C 26.508489,230.16499 21.422835,228.0489 18.227841,223.64117 12.459604,215.6833 7.4157511,207.20026 1.636024,198.2667 c 2.1467021,-0.13054 3.5525722,-0.28273 4.9593666,-0.29164 21.6108584,-0.13642 43.2225584,-0.18881 64.8326744,-0.39896 15.150006,-0.14735 29.941965,-2.95213 44.620505,-6.45776 16.04191,-3.83117 32.30468,-5.74153 48.80431,-5.70467 13.33806,0.0297 26.67639,-0.0493 40.0146,-0.0647 1.07579,-0.001 2.15167,0.11766 3.92322,0.22158 -0.814,1.58256 -1.30926,2.75635 -1.98117,3.81834 -5.54341,8.76216 -11.1317,17.49588 -16.68239,26.25343 -5.92486,9.34782 -14.2715,14.56627 -25.45906,14.60019 -43.96601,0.13334 -87.932253,0.18713 -132.225827,0.24175 z"
       id="path3"
       style="stroke-width:0.741171" />
    <path
       fill="#ff801c"
       opacity="1"
       stroke="none"
       d="m 77.784704,45.859379 c 13.995913,37.920995 14.487778,75.611911 0.05841,113.210211 -2.2422,5.84235 -5.689526,11.21737 -8.494033,16.85108 -1.124467,2.25886 -2.72239,2.15146 -4.619745,1.29155 -11.054834,-5.01031 -22.754218,-5.48345 -34.507207,-4.28122 -5.703005,0.58331 -11.276359,2.45549 -16.898573,3.78587 -1.011106,0.23923 -1.974074,0.68181 -3.5168814,0.67707 C 36.05366,126.43914 52.101451,72.310861 62.273882,16.102784 c 6.719546,9.253511 11.547473,19.119627 15.510822,29.756595 z"
       id="path4"
       style="stroke-width:0.741171" />
    <path
       fill="#ee0d59"
       opacity="1"
       stroke="none"
       d="m 172.96605,150.33823 c -1.9335,-1.50667 -4.01547,-2.66032 -5.15242,-4.42342 -2.07465,-3.21707 -4.60288,-4.07239 -8.12177,-3.0681 -1.51026,0.43103 -3.10565,0.56376 -4.96631,0.88442 0.42432,3.46053 0.82223,6.70553 1.26959,10.35401 -2.01516,0.24119 -3.77182,0.45139 -5.81972,0.69645 -1.48501,-9.39717 -2.92113,-18.48511 -4.35004,-27.52742 8.0881,-3.37277 12.26217,-2.39706 17.45427,4.26727 2.12259,2.72444 4.07911,4.49048 8.13064,4.2261 7.06511,-0.46104 12.28208,5.59774 12.62502,14.26162 -3.57788,0.13502 -7.18476,0.27117 -11.06926,0.32907 m -17.03248,-19.14022 c -1.05272,-1.27447 -2.10545,-2.54892 -3.15813,-3.82336 -0.27962,0.1353 -0.55918,0.2706 -0.83879,0.40585 0.52968,3.29064 1.05942,6.58124 1.64728,10.23319 2.38158,-0.34198 4.35741,-0.6257 6.96491,-1.00014 -1.71894,-2.16629 -3.00088,-3.78193 -4.61527,-5.81554 m 22.30351,16.9546 c -0.49146,-2.6141 -0.98292,-5.22814 -1.52495,-8.11127 -1.98272,0.37075 -3.56097,0.66589 -5.74585,1.07449 1.92947,2.40184 3.31061,4.27245 4.8667,5.98395 0.62695,0.68954 1.63714,1.03065 2.4041,1.05283 z"
       id="path32"
       style="stroke-width:0.741171" />
    <path
       fill="#ee0d59"
       opacity="1"
       stroke="none"
       d="m 103.10231,133.28294 c 6.83598,-1.05112 13.36873,-2.06695 20.18988,-3.12763 0.33688,1.98247 0.59686,3.51228 0.91782,5.40098 -2.83625,0.56469 -5.43837,1.08278 -8.45544,1.68349 1.11095,7.42017 2.19805,14.68072 3.3483,22.36343 -1.89291,0.37938 -3.61977,0.72548 -5.8066,1.16376 -1.2396,-7.66819 -2.42713,-15.01441 -3.67509,-22.73432 -2.93751,0.42207 -5.55355,0.79795 -8.66417,1.24486 0.72244,-2.2994 -2.851052,-5.15068 2.1453,-5.99457 z"
       id="path33"
       style="stroke-width:0.741171" />
    <path
       fill="#ee0d59"
       opacity="1"
       stroke="none"
       d="m 130.45935,129.00144 c 0.97356,0.9189 2.00964,1.7794 2.25134,2.8238 0.65948,2.84932 0.98374,5.77621 1.50238,9.06281 3.54292,-0.46904 6.77288,-0.89666 10.407,-1.37778 0.32525,1.76094 0.62662,3.39244 1.00033,5.41583 -3.41425,0.6116 -6.62206,1.18623 -10.24702,1.83557 0.38768,3.3647 0.75953,6.59188 1.16916,10.14699 -1.92134,0.3445 -3.65013,0.65446 -5.77788,1.03597 -1.49922,-9.44082 -2.93986,-18.51307 -4.45508,-28.05474 1.34744,-0.302 2.59872,-0.58247 4.14977,-0.88845 z"
       id="path34"
       style="stroke-width:0.741171" />
    <path
       fill="#357ccf"
       opacity="1"
       stroke="none"
       d="m 156.09977,131.40698 c 1.44819,1.82464 2.73013,3.44028 4.44907,5.60657 -2.6075,0.37444 -4.58333,0.65816 -6.96491,1.00014 -0.58786,-3.65195 -1.1176,-6.94255 -1.64728,-10.23319 0.27962,-0.1353 0.55918,-0.2706 0.83879,-0.40585 1.05268,1.27444 2.10541,2.54889 3.32433,4.03233 z"
       id="path39"
       style="stroke-width:0.741171" />
    <path
       fill="#357ccf"
       opacity="1"
       stroke="none"
       d="m 178.27146,148.39134 c -0.80134,-0.2608 -1.81153,-0.60202 -2.43848,-1.29156 -1.55609,-1.7115 -2.93723,-3.58211 -4.8667,-5.98395 2.18488,-0.4086 3.76313,-0.70374 5.74585,-1.07449 0.54203,2.88313 1.03349,5.49717 1.55933,8.35 z"
       id="path40"
       style="stroke-width:0.741171" />
  </g>
</svg>
